<?xml version="1.0" encoding="windows-1252" standalone="yes"?>
<svg xmlns="http://www.w3.org/2000/svg" width="700" height="700" viewbox="0 0 700 700" class="svg">
	<link xmlns="http://www.w3.org/1999/xhtml" rel="stylesheet" href="svg.css" type="text/css"/>
	<defs>
		<filter id="TextBox" filterUnits="objectBoundingBox" x="-0.1" y="-0.1" height="1.2" width="1.2">
			<feFlood class="feFlood" result="bgnd"/>
			<feComposite in="SourceGraphic" in2="bgnd" operator="atop"/>
		</filter>
	</defs>
	<g>
		<rect id="background" class="background" x="-1" y="-1" width="700" height="700"/>
	</g>
	<g>
		<a href="https://github.com/boogert-lab/dmdw">
			<text x="695" y="695" text-anchor="end" fill="#ee7700" stroke="#000" stroke-width="0" font-size="12" font-family="sans-serif" xml:space="preserve" font-weight="bold" font-style="normal">DMDW</text>
		</a>
	</g>
	<g>
		<title>Case Heterogeneous Relationships</title>
		<circle class="circle" cx="253.673" cy="559.077"/>
		<line x1="258.743" y1="546.629" x2="383.994" y2="239.115" class="line"/>
		<line x1="240.242" y1="562.379" x2="160.992" y2="581.860" class="line"/>
		<line x1="244.948" y1="550.627" x2="136.994" y2="446.069" class="line"/>
		<line x1="263.906" y1="552.278" x2="374.968" y2="478.482" class="line"/>
		<circle class="circle" cx="50.0000" cy="240.231"/>
		<line x1="50.7005" y1="257.459" x2="55.5206" y2="376.015" class="line"/>
		<line x1="57.1825" y1="250.368" x2="121.456" y2="341.086" class="line"/>
		<line x1="56.5069" y1="229.354" x2="122.435" y2="119.149" class="line"/>
		<line x1="54.4462" y1="253.362" x2="124.771" y2="461.053" class="line"/>
		<circle class="circle" cx="250.143" cy="362.237"/>
		<line x1="244.056" y1="373.571" x2="132.641" y2="581.019" class="line"/>
		<line x1="259.725" y1="369.749" x2="376.302" y2="461.147" class="line"/>
		<line x1="239.591" y1="368.686" x2="142.425" y2="428.074" class="line"/>
		<circle class="circle" cx="246.610" cy="119.844"/>
		<line x1="231.303" y1="118.595" x2="151.451" y2="112.080" class="line"/>
		<line x1="257.941" y1="114.247" x2="373.069" y2="57.3752" class="line"/>
		<line x1="232.462" y1="122.361" x2="143.751" y2="138.140" class="line"/>
		<circle class="circle" cx="251.320" cy="463.098"/>
		<line x1="235.676" y1="463.979" x2="143.345" y2="469.176" class="line"/>
		<line x1="267.035" y1="463.900" x2="370.758" y2="469.189" class="line"/>
		<line x1="242.838" y1="471.814" x2="136.565" y2="581.019" class="line"/>
		<line x1="237.526" y1="460.194" x2="152.229" y2="442.235" class="line"/>
	</g>
	<g>
		<title>Case Relationships</title>
		<polyline class="polyline" points="110.067,350.012 68.3452,350.084 64.0042,344.086 64.0042,242.906 64.0042,237.555 64.0042,55.9983 68.3452,50.0180 102.114,50.1440 "/>
		<polyline class="polyline" points="128.091,569.527 128.091,581.019 "/>
		<polyline class="polyline" points="165.584,529.992 365.515,530.208 "/>
		<polyline class="polyline" points="106.642,619.223 112.776,619.241 112.776,599.014 "/>
		<polyline class="polyline" points="365.515,530.208 229.089,530.040 220.407,518.043 220.412,362.045 211.729,350.054 145.572,350.276 "/>
		<polyline class="polyline" points="267.811,617.513 136.521,617.525 127.826,605.528 127.826,599.014 "/>
		<polyline class="polyline" points="164.764,590.023 269.938,590.023 278.620,578.026 278.620,62.1646 287.302,50.1680 370.455,50.1500 "/>
		<polyline class="polyline" points="74.3098,610.813 74.3098,569.155 "/>
		<polyline class="polyline" points="408.196,161.137 408.196,145.157 399.514,133.161 378.759,133.167 370.077,145.163 370.077,161.137 "/>
		<polyline class="polyline" points="335.110,617.927 378.777,617.909 387.585,605.906 387.585,599.014 "/>
		<polyline class="polyline" points="387.658,101.154 387.658,59.1654 "/>
		<polyline class="polyline" points="112.263,560.169 96.6878,560.163 "/>
	</g>
	<g>
		<title>Case Objects</title>
		<g transform="translate(74.8220,564.157)" style="filter:url(#TextBox)" class="textbox">
			<text>Brewery</text>
		</g>
		<g transform="translate(387.658,174.134)" style="filter:url(#TextBox)" class="textbox">
			<text>Road Works</text>
		</g>
		<g transform="translate(127.704,144.995)" style="filter:url(#TextBox)" class="textbox">
			<text>Walk</text>
		</g>
		<g transform="translate(387.658,234.118)" style="filter:url(#TextBox)" class="textbox">
			<text>Roundabout</text>
		</g>
		<g transform="translate(127.843,294.101)" style="filter:url(#TextBox)" class="textbox">
			<text>Motorway</text>
		</g>
		<g transform="translate(127.817,54.1680)" style="filter:url(#TextBox)" class="textbox">
			<text>Company</text>
		</g>
		<g transform="translate(127.817,114.151)" style="filter:url(#TextBox)" class="textbox">
			<text>Footpath</text>
		</g>
		<g transform="translate(387.658,114.151)" style="filter:url(#TextBox)" class="textbox">
			<text>Road Annotation</text>
		</g>
		<g transform="translate(55.8864,389.012)" style="filter:url(#TextBox)" class="textbox">
			<text>Seat</text>
		</g>
		<g transform="translate(301.480,621.357)" style="filter:url(#TextBox)" class="textbox">
			<text>Travel Details</text>
		</g>
		<g transform="translate(127.817,474.050)" style="filter:url(#TextBox)" class="textbox">
			<text>Park</text>
		</g>
		<g transform="translate(127.822,174.134)" style="filter:url(#TextBox)" class="textbox">
			<text>Hotel</text>
		</g>
		<g transform="translate(127.809,594.017)" style="filter:url(#TextBox)" class="textbox">
			<text>Pub/Restaurant</text>
		</g>
		<g transform="translate(127.817,654.000)" style="filter:url(#TextBox)" class="textbox">
			<text>Railway Line</text>
		</g>
		<g transform="translate(75.7553,623.810)" style="filter:url(#TextBox)" class="textbox">
			<text>Pub Brewery</text>
		</g>
		<g transform="translate(387.667,414.067)" style="filter:url(#TextBox)" class="textbox">
			<text>Trunk Road</text>
		</g>
		<g transform="translate(387.650,594.017)" style="filter:url(#TextBox)" class="textbox">
			<text>Car Park</text>
		</g>
		<g transform="translate(650.000,355.134)" style="filter:url(#TextBox)" class="textbox">
			<text>Picture</text>
		</g>
		<g transform="translate(387.650,534.034)" style="filter:url(#TextBox)" class="textbox">
			<text>Drawing</text>
		</g>
		<g transform="translate(387.658,54.1680)" style="filter:url(#TextBox)" class="textbox">
			<text>Road</text>
		</g>
		<g transform="translate(127.817,234.849)" style="filter:url(#TextBox)" class="textbox">
			<text>Road Catalogue</text>
		</g>
		<g transform="translate(387.650,294.101)" style="filter:url(#TextBox)" class="textbox">
			<text>Slip Road</text>
		</g>
		<g transform="translate(128.082,564.529)" style="filter:url(#TextBox)" class="textbox">
			<text>Beer</text>
		</g>
		<g transform="translate(127.817,414.067)" style="filter:url(#TextBox)" class="textbox">
			<text>Office View</text>
		</g>
		<g transform="translate(127.830,354.084)" style="filter:url(#TextBox)" class="textbox">
			<text>Office</text>
		</g>
		<g transform="translate(127.704,441.072)" style="filter:url(#TextBox)" class="textbox">
			<text>Play Area</text>
		</g>
		<g transform="translate(387.658,474.050)" style="filter:url(#TextBox)" class="textbox">
			<text>Shop</text>
		</g>
		<g transform="translate(387.671,354.084)" style="filter:url(#TextBox)" class="textbox">
			<text>Town</text>
		</g>
		<g transform="translate(127.817,534.034)" style="filter:url(#TextBox)" class="textbox">
			<text>Place of Interest</text>
		</g>
		<g transform="translate(127.726,502.710)" style="filter:url(#TextBox)" class="textbox">
			<text>Cadastral Boundary</text>
		</g>
		<g transform="translate(387.658,653.526)" style="filter:url(#TextBox)" class="textbox">
			<text>Level Crossing</text>
		</g>
	</g>
</svg>